# xmcd CD database file
#
# Track frame offsets:
#	151
#	14311
#	27268
#	39102
#	50739
#	62272
#	75562
#	87797
#	99853
#	113893
#	125529
#	138216
#	151092
#	162597
#	175534
#	187553
#	200891
#	216322
#	228939
#	241858
#	253402
#	267098
#	281191
#	294323
#	306498
#	319537
#	333876
#
# Disc length: 4631 seconds
#
# Revision: 0
# Processed by: cddbd v1.5.2PL0 Copyright (c) Steve Scherf et al.
# Submitted via: CDex 1.51
#
DISCID=6912151b
DTITLE=Earl Hines - Piano Man
DYEAR=2006
DGENRE=Jazz
TTITLE0=rosetta
TTITLE1=body and soul
TTITLE2=child of a disordered brain
TTITLE3=on the sunny side of the street
TTITLE4=my melancholy baby
TTITLE5=blues in thirds
TTITLE6=g.t. stomp
TTITLE7=grand terrace shuffle
TTITLE8=father steps in
TTITLE9=piano man
TTITLE10=riff medley
TTITLE11=boogie woogie on saint louis blues
TTITLE12=deep forest
TTITLE13=number
TTITLE14=call me happy
TTITLE15=tantalizing a cuban
TTITLE16=jelly, jelly
TTITLE17=up jumped the devil
TTITLE18=windy city jive
TTITLE19=the father jumps
TTITLE20=second balcony jump
TTITLE21=stormy monday blues
TTITLE22=my fate is in your hands
TTITLE23=i've got the feeling i'm falling
TTITLE24=honeysuckle rose
TTITLE25=squeeze me
TTITLE26=boogie woogie on saint louis blues (v-disc version)
EXTD=YEAR: 2006
EXTT0=
EXTT1=
EXTT2=
EXTT3=
EXTT4=
EXTT5=
EXTT6=
EXTT7=
EXTT8=
EXTT9=
EXTT10=
EXTT11=
EXTT12=
EXTT13=
EXTT14=
EXTT15=
EXTT16=
EXTT17=
EXTT18=
EXTT19=
EXTT20=
EXTT21=
EXTT22=
EXTT23=
EXTT24=
EXTT25=
EXTT26=
PLAYORDER=
